<?xml version="1.0" encoding="UTF-8"?>
<svg xmlns="http://www.w3.org/2000/svg" xmlns:xlink="http://www.w3.org/1999/xlink" stroke-dasharray="none" shape-rendering="auto" font-family="'Dialog'" width="512" text-rendering="auto" fill-opacity="1" contentScriptType="text/ecmascript" color-interpolation="auto" color-rendering="auto" preserveAspectRatio="xMidYMid meet" font-size="12" viewBox="0 0 512 730" fill="black" stroke="black" image-rendering="auto" stroke-miterlimit="10" zoomAndPan="magnify" version="1.0" stroke-linecap="square" stroke-linejoin="miter" contentStyleType="text/css" font-style="normal" height="730" stroke-width="1" stroke-dashoffset="0" font-weight="normal" stroke-opacity="1">
  <!--Generated by the Batik Graphics2D SVG Generator-->
  <defs id="genericDefs" />
  <g>
    <defs id="defs1">
      <clipPath clipPathUnits="userSpaceOnUse" id="clipPath1">
        <path d="M9 9 L81 9 L81 41 L9 41 L9 9 Z" />
      </clipPath>
      <clipPath clipPathUnits="userSpaceOnUse" id="clipPath2">
        <path d="M9 9 L85 9 L85 41 L9 41 L9 9 Z" />
      </clipPath>
      <clipPath clipPathUnits="userSpaceOnUse" id="clipPath3">
        <path d="M39 39 L51 39 L51 721 L39 721 L39 39 Z" />
      </clipPath>
      <clipPath clipPathUnits="userSpaceOnUse" id="clipPath4">
        <path d="M351 9 L503 9 L503 61 L351 61 L351 9 Z" />
      </clipPath>
      <clipPath clipPathUnits="userSpaceOnUse" id="clipPath5">
        <path d="M351 9 L505 9 L505 61 L351 61 L351 9 Z" />
      </clipPath>
      <clipPath clipPathUnits="userSpaceOnUse" id="clipPath6">
        <path d="M351 9 L506 9 L506 61 L351 61 L351 9 Z" />
      </clipPath>
      <clipPath clipPathUnits="userSpaceOnUse" id="clipPath7">
        <path d="M421 59 L433 59 L433 721 L421 721 L421 59 Z" />
      </clipPath>
      <clipPath clipPathUnits="userSpaceOnUse" id="clipPath8">
        <path d="M416 89 L438 89 L438 131 L416 131 L416 89 Z" />
      </clipPath>
      <clipPath clipPathUnits="userSpaceOnUse" id="clipPath9">
        <path d="M437 89 L481 89 L481 108 L437 108 L437 89 Z" />
      </clipPath>
      <clipPath clipPathUnits="userSpaceOnUse" id="clipPath10">
        <path d="M416 209 L438 209 L438 251 L416 251 L416 209 Z" />
      </clipPath>
      <clipPath clipPathUnits="userSpaceOnUse" id="clipPath11">
        <path d="M437 209 L481 209 L481 228 L437 228 L437 209 Z" />
      </clipPath>
      <clipPath clipPathUnits="userSpaceOnUse" id="clipPath12">
        <path d="M416 329 L438 329 L438 371 L416 371 L416 329 Z" />
      </clipPath>
      <clipPath clipPathUnits="userSpaceOnUse" id="clipPath13">
        <path d="M437 329 L481 329 L481 348 L437 348 L437 329 Z" />
      </clipPath>
      <clipPath clipPathUnits="userSpaceOnUse" id="clipPath14">
        <path d="M416 449 L438 449 L438 491 L416 491 L416 449 Z" />
      </clipPath>
      <clipPath clipPathUnits="userSpaceOnUse" id="clipPath15">
        <path d="M437 449 L481 449 L481 468 L437 468 L437 449 Z" />
      </clipPath>
      <clipPath clipPathUnits="userSpaceOnUse" id="clipPath16">
        <path d="M416 569 L438 569 L438 611 L416 611 L416 569 Z" />
      </clipPath>
      <clipPath clipPathUnits="userSpaceOnUse" id="clipPath17">
        <path d="M437 569 L481 569 L481 588 L437 588 L437 569 Z" />
      </clipPath>
      <clipPath clipPathUnits="userSpaceOnUse" id="clipPath18">
        <path d="M416 149 L438 149 L438 191 L416 191 L416 149 Z" />
      </clipPath>
      <clipPath clipPathUnits="userSpaceOnUse" id="clipPath19">
        <path d="M437 149 L472 149 L472 168 L437 168 L437 149 Z" />
      </clipPath>
      <clipPath clipPathUnits="userSpaceOnUse" id="clipPath20">
        <path d="M416 269 L438 269 L438 311 L416 311 L416 269 Z" />
      </clipPath>
      <clipPath clipPathUnits="userSpaceOnUse" id="clipPath21">
        <path d="M437 269 L472 269 L472 288 L437 288 L437 269 Z" />
      </clipPath>
      <clipPath clipPathUnits="userSpaceOnUse" id="clipPath22">
        <path d="M416 389 L438 389 L438 431 L416 431 L416 389 Z" />
      </clipPath>
      <clipPath clipPathUnits="userSpaceOnUse" id="clipPath23">
        <path d="M437 389 L472 389 L472 408 L437 408 L437 389 Z" />
      </clipPath>
      <clipPath clipPathUnits="userSpaceOnUse" id="clipPath24">
        <path d="M416 509 L438 509 L438 551 L416 551 L416 509 Z" />
      </clipPath>
      <clipPath clipPathUnits="userSpaceOnUse" id="clipPath25">
        <path d="M437 509 L472 509 L472 528 L437 528 L437 509 Z" />
      </clipPath>
      <clipPath clipPathUnits="userSpaceOnUse" id="clipPath26">
        <path d="M416 629 L438 629 L438 671 L416 671 L416 629 Z" />
      </clipPath>
      <clipPath clipPathUnits="userSpaceOnUse" id="clipPath27">
        <path d="M437 629 L472 629 L472 648 L437 648 L437 629 Z" />
      </clipPath>
      <clipPath clipPathUnits="userSpaceOnUse" id="clipPath28">
        <path d="M-1 -1 L513 -1 L513 731 L-1 731 L-1 -1 Z" />
      </clipPath>
      <clipPath clipPathUnits="userSpaceOnUse" id="clipPath29">
        <path d="M109 71 L356 71 L356 90 L109 90 L109 71 Z" />
      </clipPath>
      <clipPath clipPathUnits="userSpaceOnUse" id="clipPath30">
        <path d="M43 85 L55 85 L55 96 L43 96 L43 85 Z" />
      </clipPath>
      <clipPath clipPathUnits="userSpaceOnUse" id="clipPath31">
        <path d="M195 191 L271 191 L271 210 L195 210 L195 191 Z" />
      </clipPath>
      <clipPath clipPathUnits="userSpaceOnUse" id="clipPath32">
        <path d="M43 205 L55 205 L55 216 L43 216 L43 205 Z" />
      </clipPath>
      <clipPath clipPathUnits="userSpaceOnUse" id="clipPath33">
        <path d="M100 311 L366 311 L366 330 L100 330 L100 311 Z" />
      </clipPath>
      <clipPath clipPathUnits="userSpaceOnUse" id="clipPath34">
        <path d="M43 325 L55 325 L55 336 L43 336 L43 325 Z" />
      </clipPath>
      <clipPath clipPathUnits="userSpaceOnUse" id="clipPath35">
        <path d="M136 431 L330 431 L330 450 L136 450 L136 431 Z" />
      </clipPath>
      <clipPath clipPathUnits="userSpaceOnUse" id="clipPath36">
        <path d="M43 445 L55 445 L55 456 L43 456 L43 445 Z" />
      </clipPath>
      <clipPath clipPathUnits="userSpaceOnUse" id="clipPath37">
        <path d="M133 551 L333 551 L333 570 L133 570 L133 551 Z" />
      </clipPath>
      <clipPath clipPathUnits="userSpaceOnUse" id="clipPath38">
        <path d="M43 565 L55 565 L55 576 L43 576 L43 565 Z" />
      </clipPath>
      <clipPath clipPathUnits="userSpaceOnUse" id="clipPath39">
        <path d="M99 131 L367 131 L367 150 L99 150 L99 131 Z" />
      </clipPath>
      <clipPath clipPathUnits="userSpaceOnUse" id="clipPath40">
        <path d="M408 145 L420 145 L420 156 L408 156 L408 145 Z" />
      </clipPath>
      <clipPath clipPathUnits="userSpaceOnUse" id="clipPath41">
        <path d="M85 251 L381 251 L381 270 L85 270 L85 251 Z" />
      </clipPath>
      <clipPath clipPathUnits="userSpaceOnUse" id="clipPath42">
        <path d="M408 265 L420 265 L420 276 L408 276 L408 265 Z" />
      </clipPath>
      <clipPath clipPathUnits="userSpaceOnUse" id="clipPath43">
        <path d="M115 371 L351 371 L351 390 L115 390 L115 371 Z" />
      </clipPath>
      <clipPath clipPathUnits="userSpaceOnUse" id="clipPath44">
        <path d="M408 385 L420 385 L420 396 L408 396 L408 385 Z" />
      </clipPath>
      <clipPath clipPathUnits="userSpaceOnUse" id="clipPath45">
        <path d="M130 491 L336 491 L336 510 L130 510 L130 491 Z" />
      </clipPath>
      <clipPath clipPathUnits="userSpaceOnUse" id="clipPath46">
        <path d="M408 505 L420 505 L420 516 L408 516 L408 505 Z" />
      </clipPath>
      <clipPath clipPathUnits="userSpaceOnUse" id="clipPath47">
        <path d="M99 611 L367 611 L367 630 L99 630 L99 611 Z" />
      </clipPath>
      <clipPath clipPathUnits="userSpaceOnUse" id="clipPath48">
        <path d="M408 625 L420 625 L420 636 L408 636 L408 625 Z" />
      </clipPath>
    </defs>
    <g font-size="9" fill="rgb(238,201,142)" stroke-linejoin="round" stroke="rgb(238,201,142)" stroke-width="0" stroke-miterlimit="0">
      <rect x="10" y="10" clip-path="url(#clipPath1)" width="70" height="30" stroke="none" />
    </g>
    <g font-size="9" stroke-width="0.1" stroke-linecap="butt">
      <rect x="10" y="10" clip-path="url(#clipPath1)" fill="none" width="69" height="29" />
      <text x="21" font-size="14" y="30" clip-path="url(#clipPath2)" stroke="none" xml:space="preserve">System</text>
      <line clip-path="url(#clipPath3)" fill="none" x1="44" x2="44" y1="40" y2="720" stroke-dasharray="10,10" stroke-width="1.1" />
    </g>
    <g stroke-linecap="butt" font-size="9" fill="rgb(255,245,181)" stroke-dasharray="10,10" stroke="rgb(255,245,181)" stroke-width="1.1">
      <rect x="352" y="10" clip-path="url(#clipPath4)" width="150" height="50" stroke="none" />
    </g>
    <g font-size="9" stroke-width="0.1" stroke-linecap="butt">
      <rect x="352" y="10" clip-path="url(#clipPath4)" fill="none" width="149" height="49" />
      <text x="417" font-size="14" y="32" clip-path="url(#clipPath5)" stroke="none" xml:space="preserve">bill</text>
      <text x="369" font-size="14" y="49" clip-path="url(#clipPath6)" stroke="none" xml:space="preserve">: actAdministrator</text>
      <line clip-path="url(#clipPath7)" fill="none" x1="426" x2="426" y1="60" y2="720" stroke-dasharray="10,10" stroke-width="1.1" />
    </g>
    <g stroke-linecap="butt" font-size="9" fill="rgb(39,76,114)" stroke-dasharray="10,10" stroke="rgb(39,76,114)" stroke-width="1.1">
      <rect x="417" y="90" clip-path="url(#clipPath8)" width="20" height="40" stroke="none" />
      <rect x="417" y="90" clip-path="url(#clipPath8)" fill="none" width="19" stroke-dasharray="none" height="39" stroke-width="0.1" />
    </g>
    <g font-size="14" stroke-width="0.1" stroke-linecap="butt">
      <text xml:space="preserve" x="438" y="104" clip-path="url(#clipPath9)" stroke="none">out01</text>
      <rect x="417" y="210" clip-path="url(#clipPath10)" fill="rgb(39,76,114)" width="20" height="40" stroke="none" />
      <rect x="417" y="210" clip-path="url(#clipPath10)" fill="none" width="19" height="39" stroke="rgb(39,76,114)" />
      <text xml:space="preserve" x="438" y="224" clip-path="url(#clipPath11)" stroke="none">out02</text>
      <rect x="417" y="330" clip-path="url(#clipPath12)" fill="rgb(39,76,114)" width="20" height="40" stroke="none" />
      <rect x="417" y="330" clip-path="url(#clipPath12)" fill="none" width="19" height="39" stroke="rgb(39,76,114)" />
      <text xml:space="preserve" x="438" y="344" clip-path="url(#clipPath13)" stroke="none">out03</text>
      <rect x="417" y="450" clip-path="url(#clipPath14)" fill="rgb(39,76,114)" width="20" height="40" stroke="none" />
      <rect x="417" y="450" clip-path="url(#clipPath14)" fill="none" width="19" height="39" stroke="rgb(39,76,114)" />
      <text xml:space="preserve" x="438" y="464" clip-path="url(#clipPath15)" stroke="none">out04</text>
      <rect x="417" y="570" clip-path="url(#clipPath16)" fill="rgb(39,76,114)" width="20" height="40" stroke="none" />
      <rect x="417" y="570" clip-path="url(#clipPath16)" fill="none" width="19" height="39" stroke="rgb(39,76,114)" />
      <text xml:space="preserve" x="438" y="584" clip-path="url(#clipPath17)" stroke="none">out05</text>
      <rect x="417" y="150" clip-path="url(#clipPath18)" fill="rgb(194,239,255)" width="20" height="40" stroke="none" />
      <rect x="417" y="150" clip-path="url(#clipPath18)" fill="none" width="19" height="39" stroke="rgb(194,239,255)" />
      <text xml:space="preserve" x="438" y="164" clip-path="url(#clipPath19)" stroke="none">in01</text>
      <rect x="417" y="270" clip-path="url(#clipPath20)" fill="rgb(194,239,255)" width="20" height="40" stroke="none" />
      <rect x="417" y="270" clip-path="url(#clipPath20)" fill="none" width="19" height="39" stroke="rgb(194,239,255)" />
      <text xml:space="preserve" x="438" y="284" clip-path="url(#clipPath21)" stroke="none">in02</text>
      <rect x="417" y="390" clip-path="url(#clipPath22)" fill="rgb(194,239,255)" width="20" height="40" stroke="none" />
      <rect x="417" y="390" clip-path="url(#clipPath22)" fill="none" width="19" height="39" stroke="rgb(194,239,255)" />
      <text xml:space="preserve" x="438" y="404" clip-path="url(#clipPath23)" stroke="none">in03</text>
      <rect x="417" y="510" clip-path="url(#clipPath24)" fill="rgb(194,239,255)" width="20" height="40" stroke="none" />
      <rect x="417" y="510" clip-path="url(#clipPath24)" fill="none" width="19" height="39" stroke="rgb(194,239,255)" />
      <text xml:space="preserve" x="438" y="524" clip-path="url(#clipPath25)" stroke="none">in04</text>
      <rect x="417" y="630" clip-path="url(#clipPath26)" fill="rgb(194,239,255)" width="20" height="40" stroke="none" />
      <rect x="417" y="630" clip-path="url(#clipPath26)" fill="none" width="19" height="39" stroke="rgb(194,239,255)" />
      <text xml:space="preserve" x="438" y="644" clip-path="url(#clipPath27)" stroke="none">in05</text>
      <line clip-path="url(#clipPath28)" fill="none" x1="417" x2="45" y1="90" y2="90" stroke="rgb(136,136,136)" stroke-width="2.1" />
      <text x="110" y="86" clip-path="url(#clipPath29)" stroke="none" stroke-width="2.1" xml:space="preserve">oeLogin("icrashadmin","7WXC1359")</text>
      <line clip-path="url(#clipPath30)" fill="none" x1="52" x2="45" y1="87" y2="90" stroke="rgb(136,136,136)" stroke-width="2.1" />
      <line clip-path="url(#clipPath30)" fill="none" x1="45" x2="52" y1="90" y2="93" stroke="rgb(136,136,136)" stroke-width="2.1" />
      <line clip-path="url(#clipPath28)" fill="none" x1="417" x2="45" y1="210" y2="210" stroke="rgb(136,136,136)" stroke-width="2.1" />
      <text x="196" y="206" clip-path="url(#clipPath31)" stroke="none" stroke-width="2.1" xml:space="preserve">oeLogout()</text>
      <line clip-path="url(#clipPath32)" fill="none" x1="52" x2="45" y1="207" y2="210" stroke="rgb(136,136,136)" stroke-width="2.1" />
      <line clip-path="url(#clipPath32)" fill="none" x1="45" x2="52" y1="210" y2="213" stroke="rgb(136,136,136)" stroke-width="2.1" />
      <line clip-path="url(#clipPath28)" fill="none" x1="417" x2="45" y1="330" y2="330" stroke="rgb(136,136,136)" stroke-width="2.1" />
      <text x="101" y="326" clip-path="url(#clipPath33)" stroke="none" stroke-width="2.1" xml:space="preserve">oeLoginRecov("icrashadmin","collector")</text>
      <line clip-path="url(#clipPath34)" fill="none" x1="52" x2="45" y1="327" y2="330" stroke="rgb(136,136,136)" stroke-width="2.1" />
      <line clip-path="url(#clipPath34)" fill="none" x1="45" x2="52" y1="330" y2="333" stroke="rgb(136,136,136)" stroke-width="2.1" />
      <line clip-path="url(#clipPath28)" fill="none" x1="417" x2="45" y1="450" y2="450" stroke="rgb(136,136,136)" stroke-width="2.1" />
      <text x="137" y="446" clip-path="url(#clipPath35)" stroke="none" stroke-width="2.1" xml:space="preserve">oeUpdatePass("pass","pass")</text>
      <line clip-path="url(#clipPath36)" fill="none" x1="52" x2="45" y1="447" y2="450" stroke="rgb(136,136,136)" stroke-width="2.1" />
      <line clip-path="url(#clipPath36)" fill="none" x1="45" x2="52" y1="450" y2="453" stroke="rgb(136,136,136)" stroke-width="2.1" />
      <line clip-path="url(#clipPath28)" fill="none" x1="417" x2="45" y1="570" y2="570" stroke="rgb(136,136,136)" stroke-width="2.1" />
      <text x="134" y="566" clip-path="url(#clipPath37)" stroke="none" stroke-width="2.1" xml:space="preserve">oeLogin("icrashadmin","pass")</text>
      <line clip-path="url(#clipPath38)" fill="none" x1="52" x2="45" y1="567" y2="570" stroke="rgb(136,136,136)" stroke-width="2.1" />
      <line clip-path="url(#clipPath38)" fill="none" x1="45" x2="52" y1="570" y2="573" stroke="rgb(136,136,136)" stroke-width="2.1" />
    </g>
    <g stroke-linecap="butt" font-size="14" fill="rgb(136,136,136)" stroke-dasharray="5,5" stroke="rgb(136,136,136)" stroke-width="2.1">
      <line clip-path="url(#clipPath28)" fill="none" x1="417" x2="45" y1="150" y2="150" />
      <text x="100" y="146" clip-path="url(#clipPath39)" fill="black" stroke="none" xml:space="preserve">ieMessage(You are logged ! Welcome ...)</text>
      <line clip-path="url(#clipPath40)" fill="none" x1="410" x2="417" y1="153" y2="150" stroke-dasharray="none" />
      <line clip-path="url(#clipPath40)" fill="none" x1="417" x2="410" y1="150" y2="147" stroke-dasharray="none" />
      <line clip-path="url(#clipPath28)" fill="none" x1="417" x2="45" y1="270" y2="270" />
      <text x="86" y="266" clip-path="url(#clipPath41)" fill="black" stroke="none" xml:space="preserve">ieMessage(You are logged out ! Good Bye ...)</text>
      <line clip-path="url(#clipPath42)" fill="none" x1="410" x2="417" y1="273" y2="270" stroke-dasharray="none" />
      <line clip-path="url(#clipPath42)" fill="none" x1="417" x2="410" y1="270" y2="267" stroke-dasharray="none" />
      <line clip-path="url(#clipPath28)" fill="none" x1="417" x2="45" y1="390" y2="390" />
      <text x="116" y="386" clip-path="url(#clipPath43)" fill="black" stroke="none" xml:space="preserve">ieMessage(Your keyword accepted)</text>
      <line clip-path="url(#clipPath44)" fill="none" x1="410" x2="417" y1="393" y2="390" stroke-dasharray="none" />
      <line clip-path="url(#clipPath44)" fill="none" x1="417" x2="410" y1="390" y2="387" stroke-dasharray="none" />
      <line clip-path="url(#clipPath28)" fill="none" x1="417" x2="45" y1="510" y2="510" />
      <text x="131" y="506" clip-path="url(#clipPath45)" fill="black" stroke="none" xml:space="preserve">ieMessage(Password changed)</text>
      <line clip-path="url(#clipPath46)" fill="none" x1="410" x2="417" y1="513" y2="510" stroke-dasharray="none" />
      <line clip-path="url(#clipPath46)" fill="none" x1="417" x2="410" y1="510" y2="507" stroke-dasharray="none" />
      <line clip-path="url(#clipPath28)" fill="none" x1="417" x2="45" y1="630" y2="630" />
      <text x="100" y="626" clip-path="url(#clipPath47)" fill="black" stroke="none" xml:space="preserve">ieMessage(You are logged ! Welcome ...)</text>
      <line clip-path="url(#clipPath48)" fill="none" x1="410" x2="417" y1="633" y2="630" stroke-dasharray="none" />
      <line clip-path="url(#clipPath48)" fill="none" x1="417" x2="410" y1="630" y2="627" stroke-dasharray="none" />
    </g>
  </g>
</svg>

